<svg width="560" height="292" viewBox="0 0 560 292" fill="none" xmlns="http://www.w3.org/2000/svg">
<path d="M98.958 12.281C90.3505 18.6727 87.9855 30.4178 87.9855 30.4178C87.9855 30.4178 99.5777 31.7984 108.187 25.4073C116.795 19.014 119.159 7.27051 119.159 7.27051C119.159 7.27051 107.567 5.88984 98.958 12.281Z" fill="black"/>
<path d="M78.403 4.58405C78.403 4.58405 69.2982 12.1225 67.7013 22.8904C66.1048 33.6567 72.6208 43.574 72.6208 43.574C72.6208 43.574 81.7256 36.0356 83.322 25.2692C84.9175 14.5008 78.403 4.58405 78.403 4.58405Z" fill="black"/>
<path d="M93.021 35.414C82.5371 37.0942 75.2267 46.468 75.2267 46.468C75.2267 46.468 84.9151 53.1171 95.3995 51.4354C105.883 49.7552 113.193 40.383 113.193 40.383C113.193 40.383 103.505 33.7338 93.021 35.414Z" fill="black"/>
<path d="M56.7532 23.5154C56.7532 23.5154 47.7271 32.3504 46.9581 43.9322C46.1896 55.5124 53.9691 65.4549 53.9691 65.4549C53.9691 65.4549 62.9947 56.6215 63.7652 45.0403C64.5337 33.46 56.7532 23.5154 56.7532 23.5154Z" fill="black"/>
<path d="M74.9475 54.9356C63.9495 57.6722 56.9883 68.2916 56.9883 68.2916C56.9883 68.2916 67.8583 74.4745 78.8563 71.7379C89.8543 69.0014 96.8171 58.3825 96.8171 58.3825C96.8171 58.3825 85.9471 52.1996 74.9475 54.9356Z" fill="black"/>
<path d="M48.6444 69.9209C47.5846 57.6525 37.8197 48.5523 37.8197 48.5523C37.8197 48.5523 29.7699 59.3416 30.8292 71.6115C31.8874 83.8793 41.6539 92.9801 41.6539 92.9801C41.6539 92.9801 49.7026 82.1886 48.6444 69.9209Z" fill="black"/>
<path d="M61.9735 78.3943C50.8734 83.1297 45.2779 95.4405 45.2779 95.4405C45.2779 95.4405 57.6819 100.076 68.7815 95.3419C79.8833 90.6071 85.4772 78.2957 85.4772 78.2957C85.4772 78.2957 73.0747 73.661 61.9735 78.3943Z" fill="black"/>
<path d="M44.6743 214.677C34.0448 208.994 21.2711 212.529 21.2711 212.529C21.2711 212.529 25.7315 225.279 36.3605 230.964C46.9901 236.647 59.7617 233.113 59.7617 233.113C59.7617 233.113 55.3018 220.361 44.6743 214.677Z" fill="black"/>
<path d="M58.8725 207.729C56.709 219.857 63.7516 231.307 63.7516 231.307C63.7516 231.307 74.3016 223.094 76.4652 210.966C78.6287 198.839 71.586 187.388 71.586 187.388C71.586 187.388 61.0366 195.6 58.8725 207.729Z" fill="black"/>
<path d="M64.3828 243.607C54.1935 240.454 43.6141 245.698 43.6141 245.698C43.6141 245.698 49.5561 256.055 59.7474 259.206C69.9383 262.36 80.5162 257.115 80.5162 257.115C80.5162 257.115 74.5737 246.76 64.3828 243.607Z" fill="black"/>
<path d="M75.6588 235.146C75.7202 246.081 83.7084 254.866 83.7084 254.866C83.7084 254.866 91.5944 245.923 91.5314 234.988C91.4704 224.052 83.4822 215.266 83.4822 215.266C83.4822 215.266 75.5958 224.211 75.6588 235.146Z" fill="black"/>
<path d="M85.4316 263.714C76.4087 262.58 68.2449 268.563 68.2449 268.563C68.2449 268.563 74.7112 276.384 83.7326 277.518C92.7555 278.652 100.919 272.668 100.919 272.668C100.919 272.668 94.4545 264.848 85.4316 263.714Z" fill="black"/>
<path d="M93.7256 254.924C95.3223 264.106 103.287 270.304 103.287 270.304C103.287 270.304 108.661 261.611 107.063 252.428C105.466 243.245 97.5025 237.05 97.5025 237.05C97.5025 237.05 92.1288 245.741 93.7256 254.924Z" fill="black"/>
<path d="M109.282 277.012C102.488 276.99 96.9448 282.169 96.9448 282.169C96.9448 282.169 102.418 287.382 109.212 287.403C116.008 287.424 121.551 282.247 121.551 282.247C121.551 282.247 116.078 277.033 109.282 277.012Z" fill="black"/>
<path d="M114.682 269.741C116.66 276.406 123.106 280.278 123.106 280.278C123.106 280.278 126.345 273.343 124.369 266.679C122.391 260.014 115.946 256.142 115.946 256.142C115.946 256.142 112.706 263.077 114.682 269.741Z" fill="black"/>
<path d="M19.8386 81.5449C19.8386 81.5449 13.7815 94.646 17.5615 107.198C21.342 119.749 33.526 126.997 33.526 126.997C33.526 126.997 39.5817 113.895 35.8027 101.345C32.0227 88.7932 19.8386 81.5449 19.8386 81.5449Z" fill="black"/>
<path d="M51.5728 107.12C41.0094 114.606 37.8471 128.729 37.8471 128.729C37.8471 128.729 51.8144 130.716 62.3778 123.23C72.9406 115.746 76.1014 101.622 76.1014 101.622C76.1014 101.622 62.1362 99.6348 51.5728 107.12Z" fill="black"/>
<path d="M9.53645 124.841C9.53645 124.841 6.743 139.043 13.3748 150.27C20.005 161.496 33.5481 165.495 33.5481 165.495C33.5481 165.495 36.34 151.292 29.7098 140.066C23.0785 128.838 9.53645 124.841 9.53645 124.841Z" fill="black"/>
<path d="M68.9156 130.322C68.9156 130.322 54.8842 131.866 46.3895 141.746C37.8947 151.626 38.156 166.102 38.156 166.102C38.156 166.102 52.1874 164.558 60.6826 154.677C69.1758 144.797 68.9156 130.322 68.9156 130.322Z" fill="black"/>
<path d="M7.7348 172.218C7.7348 172.218 9.52396 186.572 19.3207 195.011C29.1164 203.448 43.2105 202.776 43.2105 202.776C43.2105 202.776 41.4219 188.42 31.6246 179.983C21.8294 171.544 7.7348 172.218 7.7348 172.218Z" fill="black"/>
<path d="M65.7666 157.864C65.7666 157.864 52.94 163.943 47.9697 176.083C43.0005 188.226 47.769 201.832 47.769 201.832C47.769 201.832 60.5956 195.753 65.5658 183.613C70.5345 171.472 65.7666 157.864 65.7666 157.864Z" fill="black"/>
<path d="M460.606 12.281C469.213 18.6727 471.578 30.4178 471.578 30.4178C471.578 30.4178 459.986 31.7984 451.377 25.4073C442.769 19.014 440.404 7.27051 440.404 7.27051C440.404 7.27051 451.997 5.88984 460.606 12.281Z" fill="black"/>
<path d="M481.161 4.58405C481.161 4.58405 490.265 12.1225 491.862 22.8904C493.459 33.6567 486.943 43.574 486.943 43.574C486.943 43.574 477.838 36.0356 476.241 25.2692C474.646 14.5008 481.161 4.58405 481.161 4.58405Z" fill="black"/>
<path d="M466.542 35.414C477.026 37.0942 484.337 46.468 484.337 46.468C484.337 46.468 474.648 53.1171 464.164 51.4354C453.68 49.7552 446.37 40.383 446.37 40.383C446.37 40.383 456.059 33.7338 466.542 35.414Z" fill="black"/>
<path d="M502.81 23.5154C502.81 23.5154 511.836 32.3504 512.605 43.9322C513.374 55.5124 505.594 65.4549 505.594 65.4549C505.594 65.4549 496.569 56.6215 495.798 45.0403C495.03 33.46 502.81 23.5154 502.81 23.5154Z" fill="black"/>
<path d="M484.616 54.9356C495.614 57.6722 502.575 68.2916 502.575 68.2916C502.575 68.2916 491.705 74.4745 480.707 71.7379C469.709 69.0014 462.747 58.3825 462.747 58.3825C462.747 58.3825 473.617 52.1996 484.616 54.9356Z" fill="black"/>
<path d="M510.92 69.9209C511.979 57.6525 521.744 48.5523 521.744 48.5523C521.744 48.5523 529.794 59.3416 528.735 71.6115C527.677 83.8793 517.91 92.9801 517.91 92.9801C517.91 92.9801 509.861 82.1886 510.92 69.9209Z" fill="black"/>
<path d="M497.59 78.3943C508.69 83.1297 514.286 95.4405 514.286 95.4405C514.286 95.4405 501.882 100.076 490.782 95.3419C479.68 90.6071 474.087 78.2957 474.087 78.2957C474.087 78.2957 486.489 73.661 497.59 78.3943Z" fill="black"/>
<path d="M514.889 214.677C525.519 208.994 538.292 212.529 538.292 212.529C538.292 212.529 533.832 225.279 523.203 230.964C512.573 236.647 499.802 233.113 499.802 233.113C499.802 233.113 504.262 220.361 514.889 214.677Z" fill="black"/>
<path d="M500.691 207.729C502.855 219.857 495.812 231.307 495.812 231.307C495.812 231.307 485.262 223.094 483.099 210.966C480.935 198.839 487.978 187.388 487.978 187.388C487.978 187.388 498.527 195.6 500.691 207.729Z" fill="black"/>
<path d="M495.181 243.607C505.37 240.454 515.95 245.698 515.95 245.698C515.95 245.698 510.008 256.055 499.816 259.206C489.625 262.36 479.048 257.115 479.048 257.115C479.048 257.115 484.99 246.76 495.181 243.607Z" fill="black"/>
<path d="M483.905 235.146C483.843 246.081 475.855 254.866 475.855 254.866C475.855 254.866 467.969 245.923 468.032 234.988C468.093 224.052 476.081 215.266 476.081 215.266C476.081 215.266 483.968 224.211 483.905 235.146Z" fill="black"/>
<path d="M474.132 263.714C483.155 262.58 491.319 268.563 491.319 268.563C491.319 268.563 484.853 276.384 475.831 277.518C466.808 278.652 458.645 272.668 458.645 272.668C458.645 272.668 465.109 264.848 474.132 263.714Z" fill="black"/>
<path d="M465.838 254.924C464.241 264.106 456.276 270.304 456.276 270.304C456.276 270.304 450.902 261.611 452.501 252.428C454.097 243.245 462.061 237.05 462.061 237.05C462.061 237.05 467.435 245.741 465.838 254.924Z" fill="black"/>
<path d="M450.281 277.012C457.075 276.99 462.619 282.169 462.619 282.169C462.619 282.169 457.146 287.382 450.352 287.403C443.556 287.424 438.013 282.247 438.013 282.247C438.013 282.247 443.485 277.033 450.281 277.012Z" fill="black"/>
<path d="M444.882 269.741C442.904 276.406 436.458 280.278 436.458 280.278C436.458 280.278 433.219 273.343 435.195 266.679C437.173 260.014 443.618 256.142 443.618 256.142C443.618 256.142 446.858 263.077 444.882 269.741Z" fill="black"/>
<path d="M539.725 81.5449C539.725 81.5449 545.783 94.646 542.002 107.198C538.222 119.749 526.038 126.997 526.038 126.997C526.038 126.997 519.982 113.895 523.761 101.345C527.541 88.7932 539.725 81.5449 539.725 81.5449Z" fill="black"/>
<path d="M507.991 107.12C518.554 114.606 521.717 128.729 521.717 128.729C521.717 128.729 507.749 130.716 497.186 123.23C486.623 115.746 483.462 101.622 483.462 101.622C483.462 101.622 497.428 99.6348 507.991 107.12Z" fill="black"/>
<path d="M550.027 124.841C550.027 124.841 552.821 139.043 546.189 150.27C539.559 161.496 526.016 165.495 526.016 165.495C526.016 165.495 523.224 151.292 529.854 140.066C536.485 128.838 550.027 124.841 550.027 124.841Z" fill="black"/>
<path d="M490.648 130.322C490.648 130.322 504.68 131.866 513.174 141.746C521.669 151.626 521.408 166.102 521.408 166.102C521.408 166.102 507.376 164.558 498.881 154.677C490.388 144.797 490.648 130.322 490.648 130.322Z" fill="black"/>
<path d="M551.829 172.218C551.829 172.218 550.04 186.572 540.243 195.011C530.447 203.448 516.353 202.776 516.353 202.776C516.353 202.776 518.142 188.42 527.939 179.983C537.734 171.544 551.829 172.218 551.829 172.218Z" fill="black"/>
<path d="M493.797 157.864C493.797 157.864 506.624 163.943 511.594 176.083C516.563 188.226 511.795 201.832 511.795 201.832C511.795 201.832 498.968 195.753 493.998 183.613C489.029 171.472 493.797 157.864 493.797 157.864Z" fill="black"/>
</svg>
