<svg xmlns="http://www.w3.org/2000/svg" viewBox="0 0 18 18">
  <path fill="#4285F4" d="M17.64 9.205c0-.638-.057-1.253-.164-1.841H9v3.482h4.844c-.209 1.125-.843 2.078-1.793 2.716v2.258h2.909c1.702-1.567 2.68-3.873 2.68-6.615z"/>
  <path fill="#34A853" d="M9 18c2.43 0 4.467-.805 5.956-2.18l-2.909-2.258c-.805.54-1.836.859-3.047.859-2.344 0-4.328-1.583-5.036-3.71H.957v2.331C2.438 15.983 5.482 18 9 18z"/>
  <path fill="#FBBC05" d="M3.964 10.71A5.41 5.41 0 0 1 3.682 9c0-.594.102-1.17.282-1.71V4.958H.957A8.996 8.996 0 0 0 0 9c0 1.452.348 2.827.957 4.042l3.007-2.331z"/>
  <path fill="#EA4335" d="M9 3.58c1.321 0 2.508.454 3.44 1.346l2.582-2.582C13.463.892 11.426 0 9 0 5.482 0 2.438 2.017.957 4.958L3.964 7.29C4.672 5.162 6.656 3.58 9 3.58z"/>
</svg>
